<mxfile host="Electron" agent="Mozilla/5.0 (Windows NT 10.0; Win64; x64) AppleWebKit/537.36 (KHTML, like Gecko) draw.io/28.0.6 Chrome/138.0.7204.100 Electron/37.2.3 Safari/537.36" version="28.0.6">
  <diagram name="Page-1" id="2dzaWUuhjo8BfbrCOT07">
    <mxGraphModel dx="1426" dy="841" grid="1" gridSize="10" guides="1" tooltips="1" connect="1" arrows="1" fold="1" page="0" pageScale="1" pageWidth="850" pageHeight="1100" math="0" shadow="0">
      <root>
        <mxCell id="0" />
        <mxCell id="1" parent="0" />
        <mxCell id="EBvdyy6rhMPfT1-rllvr-1" value="" style="rounded=0;whiteSpace=wrap;html=1;dashed=1;fillColor=none;" parent="1" vertex="1">
          <mxGeometry x="29" y="145" width="160" height="455" as="geometry" />
        </mxCell>
        <mxCell id="EBvdyy6rhMPfT1-rllvr-2" value="&lt;font style=&quot;font-size: 13px;&quot;&gt;&lt;b&gt;Sources&lt;/b&gt;&lt;/font&gt;" style="rounded=1;whiteSpace=wrap;html=1;strokeColor=none;" parent="1" vertex="1">
          <mxGeometry x="63.5" y="130" width="91" height="30" as="geometry" />
        </mxCell>
        <mxCell id="EBvdyy6rhMPfT1-rllvr-19" style="edgeStyle=orthogonalEdgeStyle;rounded=0;orthogonalLoop=1;jettySize=auto;html=1;entryX=0;entryY=0.5;entryDx=0;entryDy=0;" parent="1" source="EBvdyy6rhMPfT1-rllvr-3" target="EBvdyy6rhMPfT1-rllvr-13" edge="1">
          <mxGeometry relative="1" as="geometry" />
        </mxCell>
        <mxCell id="EBvdyy6rhMPfT1-rllvr-21" style="edgeStyle=orthogonalEdgeStyle;rounded=0;orthogonalLoop=1;jettySize=auto;html=1;entryX=0;entryY=0.5;entryDx=0;entryDy=0;" parent="1" source="EBvdyy6rhMPfT1-rllvr-3" target="EBvdyy6rhMPfT1-rllvr-15" edge="1">
          <mxGeometry relative="1" as="geometry" />
        </mxCell>
        <mxCell id="EBvdyy6rhMPfT1-rllvr-22" style="edgeStyle=orthogonalEdgeStyle;rounded=0;orthogonalLoop=1;jettySize=auto;html=1;entryX=0;entryY=0.5;entryDx=0;entryDy=0;" parent="1" source="EBvdyy6rhMPfT1-rllvr-3" target="EBvdyy6rhMPfT1-rllvr-14" edge="1">
          <mxGeometry relative="1" as="geometry" />
        </mxCell>
        <mxCell id="EBvdyy6rhMPfT1-rllvr-3" value="CRM" style="image;aspect=fixed;html=1;points=[];align=center;fontSize=12;image=img/lib/azure2/general/Folder_Blank.svg;" parent="1" vertex="1">
          <mxGeometry x="74.5" y="265" width="69" height="56.00000000000001" as="geometry" />
        </mxCell>
        <mxCell id="EBvdyy6rhMPfT1-rllvr-23" style="edgeStyle=orthogonalEdgeStyle;rounded=0;orthogonalLoop=1;jettySize=auto;html=1;entryX=0;entryY=0.5;entryDx=0;entryDy=0;" parent="1" source="EBvdyy6rhMPfT1-rllvr-4" target="EBvdyy6rhMPfT1-rllvr-17" edge="1">
          <mxGeometry relative="1" as="geometry" />
        </mxCell>
        <mxCell id="EBvdyy6rhMPfT1-rllvr-24" style="edgeStyle=orthogonalEdgeStyle;rounded=0;orthogonalLoop=1;jettySize=auto;html=1;entryX=0;entryY=0.5;entryDx=0;entryDy=0;" parent="1" source="EBvdyy6rhMPfT1-rllvr-4" target="EBvdyy6rhMPfT1-rllvr-16" edge="1">
          <mxGeometry relative="1" as="geometry" />
        </mxCell>
        <mxCell id="EBvdyy6rhMPfT1-rllvr-25" style="edgeStyle=orthogonalEdgeStyle;rounded=0;orthogonalLoop=1;jettySize=auto;html=1;entryX=0;entryY=0.5;entryDx=0;entryDy=0;" parent="1" source="EBvdyy6rhMPfT1-rllvr-4" target="EBvdyy6rhMPfT1-rllvr-18" edge="1">
          <mxGeometry relative="1" as="geometry" />
        </mxCell>
        <mxCell id="EBvdyy6rhMPfT1-rllvr-4" value="ERP" style="image;aspect=fixed;html=1;points=[];align=center;fontSize=12;image=img/lib/azure2/general/Folder_Blank.svg;" parent="1" vertex="1">
          <mxGeometry x="74.5" y="460" width="69" height="56.00000000000001" as="geometry" />
        </mxCell>
        <mxCell id="EBvdyy6rhMPfT1-rllvr-6" value="" style="rounded=1;whiteSpace=wrap;html=1;fillStyle=hatch;strokeColor=#d79b00;fillColor=#ffe6cc;" parent="1" vertex="1">
          <mxGeometry x="257" y="190" width="190" height="410" as="geometry" />
        </mxCell>
        <mxCell id="EBvdyy6rhMPfT1-rllvr-7" value="&lt;b&gt;Bronze Layer&lt;/b&gt;" style="rounded=1;whiteSpace=wrap;html=1;fillColor=#ffe6cc;strokeColor=#d79b00;" parent="1" vertex="1">
          <mxGeometry x="267" y="125" width="170" height="60" as="geometry" />
        </mxCell>
        <mxCell id="-Nj2lTPn2lhiKE9wHVVl-9" style="edgeStyle=orthogonalEdgeStyle;rounded=0;orthogonalLoop=1;jettySize=auto;html=1;entryX=0;entryY=0.5;entryDx=0;entryDy=0;" parent="1" source="EBvdyy6rhMPfT1-rllvr-13" target="-Nj2lTPn2lhiKE9wHVVl-3" edge="1">
          <mxGeometry relative="1" as="geometry" />
        </mxCell>
        <mxCell id="EBvdyy6rhMPfT1-rllvr-13" value="crm_sales_details" style="rounded=1;whiteSpace=wrap;html=1;fillColor=#ffe6cc;strokeColor=#d79b00;" parent="1" vertex="1">
          <mxGeometry x="262" y="223" width="180" height="40" as="geometry" />
        </mxCell>
        <mxCell id="-Nj2lTPn2lhiKE9wHVVl-10" style="edgeStyle=orthogonalEdgeStyle;rounded=0;orthogonalLoop=1;jettySize=auto;html=1;" parent="1" source="EBvdyy6rhMPfT1-rllvr-14" target="-Nj2lTPn2lhiKE9wHVVl-4" edge="1">
          <mxGeometry relative="1" as="geometry" />
        </mxCell>
        <mxCell id="EBvdyy6rhMPfT1-rllvr-14" value="crm_cust_info" style="rounded=1;whiteSpace=wrap;html=1;fillColor=#ffe6cc;strokeColor=#d79b00;" parent="1" vertex="1">
          <mxGeometry x="262" y="273" width="180" height="40" as="geometry" />
        </mxCell>
        <mxCell id="-Nj2lTPn2lhiKE9wHVVl-11" style="edgeStyle=orthogonalEdgeStyle;rounded=0;orthogonalLoop=1;jettySize=auto;html=1;entryX=0;entryY=0.5;entryDx=0;entryDy=0;" parent="1" source="EBvdyy6rhMPfT1-rllvr-15" target="-Nj2lTPn2lhiKE9wHVVl-5" edge="1">
          <mxGeometry relative="1" as="geometry" />
        </mxCell>
        <mxCell id="EBvdyy6rhMPfT1-rllvr-15" value="crm_prd_info" style="rounded=1;whiteSpace=wrap;html=1;fillColor=#ffe6cc;strokeColor=#d79b00;" parent="1" vertex="1">
          <mxGeometry x="262" y="323" width="180" height="40" as="geometry" />
        </mxCell>
        <mxCell id="-Nj2lTPn2lhiKE9wHVVl-12" style="edgeStyle=orthogonalEdgeStyle;rounded=0;orthogonalLoop=1;jettySize=auto;html=1;entryX=0;entryY=0.5;entryDx=0;entryDy=0;" parent="1" source="EBvdyy6rhMPfT1-rllvr-16" target="-Nj2lTPn2lhiKE9wHVVl-6" edge="1">
          <mxGeometry relative="1" as="geometry" />
        </mxCell>
        <mxCell id="EBvdyy6rhMPfT1-rllvr-16" value="erp_cust_az12" style="rounded=1;whiteSpace=wrap;html=1;fillColor=#ffe6cc;strokeColor=#d79b00;" parent="1" vertex="1">
          <mxGeometry x="262" y="418" width="180" height="40" as="geometry" />
        </mxCell>
        <mxCell id="-Nj2lTPn2lhiKE9wHVVl-13" style="edgeStyle=orthogonalEdgeStyle;rounded=0;orthogonalLoop=1;jettySize=auto;html=1;entryX=0;entryY=0.5;entryDx=0;entryDy=0;" parent="1" source="EBvdyy6rhMPfT1-rllvr-17" target="-Nj2lTPn2lhiKE9wHVVl-7" edge="1">
          <mxGeometry relative="1" as="geometry" />
        </mxCell>
        <mxCell id="EBvdyy6rhMPfT1-rllvr-17" value="erp_loc_a101" style="rounded=1;whiteSpace=wrap;html=1;fillColor=#ffe6cc;strokeColor=#d79b00;" parent="1" vertex="1">
          <mxGeometry x="262" y="468" width="180" height="40" as="geometry" />
        </mxCell>
        <mxCell id="-Nj2lTPn2lhiKE9wHVVl-14" style="edgeStyle=orthogonalEdgeStyle;rounded=0;orthogonalLoop=1;jettySize=auto;html=1;" parent="1" source="EBvdyy6rhMPfT1-rllvr-18" target="-Nj2lTPn2lhiKE9wHVVl-8" edge="1">
          <mxGeometry relative="1" as="geometry" />
        </mxCell>
        <mxCell id="EBvdyy6rhMPfT1-rllvr-18" value="erp_px_cat_g1v2" style="rounded=1;whiteSpace=wrap;html=1;fillColor=#ffe6cc;strokeColor=#d79b00;" parent="1" vertex="1">
          <mxGeometry x="262" y="518" width="180" height="40" as="geometry" />
        </mxCell>
        <mxCell id="-Nj2lTPn2lhiKE9wHVVl-1" value="" style="rounded=1;whiteSpace=wrap;html=1;fillStyle=hatch;strokeColor=#666666;fillColor=#f5f5f5;fontColor=#333333;" parent="1" vertex="1">
          <mxGeometry x="520" y="190" width="190" height="410" as="geometry" />
        </mxCell>
        <mxCell id="-Nj2lTPn2lhiKE9wHVVl-2" value="&lt;b&gt;Silver Layer&lt;/b&gt;" style="rounded=1;whiteSpace=wrap;html=1;fillColor=#f5f5f5;strokeColor=#666666;fontColor=#333333;" parent="1" vertex="1">
          <mxGeometry x="530" y="125" width="170" height="60" as="geometry" />
        </mxCell>
        <mxCell id="-Nj2lTPn2lhiKE9wHVVl-3" value="crm_sales_details" style="rounded=1;whiteSpace=wrap;html=1;fillColor=#f5f5f5;strokeColor=#666666;fontColor=#333333;" parent="1" vertex="1">
          <mxGeometry x="525" y="223" width="180" height="40" as="geometry" />
        </mxCell>
        <mxCell id="-Nj2lTPn2lhiKE9wHVVl-4" value="crm_cust_info" style="rounded=1;whiteSpace=wrap;html=1;fillColor=#f5f5f5;strokeColor=#666666;fontColor=#333333;" parent="1" vertex="1">
          <mxGeometry x="525" y="273" width="180" height="40" as="geometry" />
        </mxCell>
        <mxCell id="-Nj2lTPn2lhiKE9wHVVl-5" value="crm_prd_info" style="rounded=1;whiteSpace=wrap;html=1;fillColor=#f5f5f5;strokeColor=#666666;fontColor=#333333;" parent="1" vertex="1">
          <mxGeometry x="525" y="323" width="180" height="40" as="geometry" />
        </mxCell>
        <mxCell id="-Nj2lTPn2lhiKE9wHVVl-6" value="&lt;span style=&quot;color: rgb(0, 0, 0);&quot;&gt;erp_cust_az12&lt;/span&gt;" style="rounded=1;whiteSpace=wrap;html=1;fillColor=#f5f5f5;strokeColor=#666666;fontColor=#333333;" parent="1" vertex="1">
          <mxGeometry x="525" y="418" width="180" height="40" as="geometry" />
        </mxCell>
        <mxCell id="-Nj2lTPn2lhiKE9wHVVl-7" value="&lt;span style=&quot;color: rgb(0, 0, 0);&quot;&gt;erp_loc_a101&lt;/span&gt;" style="rounded=1;whiteSpace=wrap;html=1;fillColor=#f5f5f5;strokeColor=#666666;fontColor=#333333;" parent="1" vertex="1">
          <mxGeometry x="525" y="468" width="180" height="40" as="geometry" />
        </mxCell>
        <mxCell id="-Nj2lTPn2lhiKE9wHVVl-8" value="&lt;span style=&quot;color: rgb(0, 0, 0);&quot;&gt;erp_px_cat_g1v2&lt;/span&gt;" style="rounded=1;whiteSpace=wrap;html=1;fillColor=#f5f5f5;strokeColor=#666666;fontColor=#333333;" parent="1" vertex="1">
          <mxGeometry x="525" y="518" width="180" height="40" as="geometry" />
        </mxCell>
        <mxCell id="wFEnDSpPt18fVGvJ-lx_-1" value="" style="rounded=1;whiteSpace=wrap;html=1;fillStyle=hatch;strokeColor=#d6b656;fillColor=#fff2cc;" vertex="1" parent="1">
          <mxGeometry x="780" y="190" width="190" height="410" as="geometry" />
        </mxCell>
        <mxCell id="wFEnDSpPt18fVGvJ-lx_-2" value="&lt;b&gt;Silver Layer&lt;/b&gt;" style="rounded=1;whiteSpace=wrap;html=1;fillColor=#fff2cc;strokeColor=#d6b656;" vertex="1" parent="1">
          <mxGeometry x="790" y="125" width="170" height="60" as="geometry" />
        </mxCell>
        <mxCell id="wFEnDSpPt18fVGvJ-lx_-3" value="fact_sales" style="rounded=1;whiteSpace=wrap;html=1;fillColor=#fff2cc;strokeColor=#d6b656;" vertex="1" parent="1">
          <mxGeometry x="785" y="250" width="180" height="40" as="geometry" />
        </mxCell>
        <mxCell id="wFEnDSpPt18fVGvJ-lx_-4" value="dim_customers" style="rounded=1;whiteSpace=wrap;html=1;fillColor=#fff2cc;strokeColor=#d6b656;" vertex="1" parent="1">
          <mxGeometry x="785" y="363" width="180" height="40" as="geometry" />
        </mxCell>
        <mxCell id="wFEnDSpPt18fVGvJ-lx_-5" value="dim_products" style="rounded=1;whiteSpace=wrap;html=1;fillColor=#fff2cc;strokeColor=#d6b656;" vertex="1" parent="1">
          <mxGeometry x="785" y="480" width="180" height="40" as="geometry" />
        </mxCell>
        <mxCell id="wFEnDSpPt18fVGvJ-lx_-15" value="" style="endArrow=classic;html=1;rounded=0;exitX=1;exitY=0.5;exitDx=0;exitDy=0;entryX=0;entryY=0.5;entryDx=0;entryDy=0;jumpStyle=gap;" edge="1" parent="1" source="-Nj2lTPn2lhiKE9wHVVl-3" target="wFEnDSpPt18fVGvJ-lx_-3">
          <mxGeometry width="50" height="50" relative="1" as="geometry">
            <mxPoint x="720" y="270" as="sourcePoint" />
            <mxPoint x="770" y="220" as="targetPoint" />
          </mxGeometry>
        </mxCell>
        <mxCell id="wFEnDSpPt18fVGvJ-lx_-16" value="" style="endArrow=classic;html=1;rounded=0;exitX=1;exitY=0.5;exitDx=0;exitDy=0;entryX=0;entryY=0.5;entryDx=0;entryDy=0;jumpStyle=gap;" edge="1" parent="1" source="-Nj2lTPn2lhiKE9wHVVl-4" target="wFEnDSpPt18fVGvJ-lx_-4">
          <mxGeometry width="50" height="50" relative="1" as="geometry">
            <mxPoint x="720" y="296" as="sourcePoint" />
            <mxPoint x="800" y="323" as="targetPoint" />
          </mxGeometry>
        </mxCell>
        <mxCell id="wFEnDSpPt18fVGvJ-lx_-17" value="" style="endArrow=classic;html=1;rounded=0;exitX=1;exitY=0.5;exitDx=0;exitDy=0;entryX=0;entryY=0.5;entryDx=0;entryDy=0;jumpStyle=gap;" edge="1" parent="1" source="-Nj2lTPn2lhiKE9wHVVl-5" target="wFEnDSpPt18fVGvJ-lx_-5">
          <mxGeometry width="50" height="50" relative="1" as="geometry">
            <mxPoint x="740" y="370" as="sourcePoint" />
            <mxPoint x="820" y="460" as="targetPoint" />
          </mxGeometry>
        </mxCell>
        <mxCell id="wFEnDSpPt18fVGvJ-lx_-18" value="" style="endArrow=classic;html=1;rounded=0;exitX=1;exitY=0.5;exitDx=0;exitDy=0;entryX=0;entryY=0.5;entryDx=0;entryDy=0;jumpStyle=gap;" edge="1" parent="1" source="-Nj2lTPn2lhiKE9wHVVl-6" target="wFEnDSpPt18fVGvJ-lx_-4">
          <mxGeometry width="50" height="50" relative="1" as="geometry">
            <mxPoint x="790" y="530" as="sourcePoint" />
            <mxPoint x="870" y="687" as="targetPoint" />
          </mxGeometry>
        </mxCell>
        <mxCell id="wFEnDSpPt18fVGvJ-lx_-19" value="" style="endArrow=classic;html=1;rounded=0;exitX=1;exitY=0.5;exitDx=0;exitDy=0;entryX=0;entryY=0.5;entryDx=0;entryDy=0;jumpStyle=gap;" edge="1" parent="1" source="-Nj2lTPn2lhiKE9wHVVl-7" target="wFEnDSpPt18fVGvJ-lx_-4">
          <mxGeometry width="50" height="50" relative="1" as="geometry">
            <mxPoint x="720" y="475" as="sourcePoint" />
            <mxPoint x="800" y="420" as="targetPoint" />
          </mxGeometry>
        </mxCell>
        <mxCell id="wFEnDSpPt18fVGvJ-lx_-21" value="" style="endArrow=classic;html=1;rounded=0;exitX=1;exitY=0.5;exitDx=0;exitDy=0;entryX=0;entryY=0.5;entryDx=0;entryDy=0;jumpStyle=gap;" edge="1" parent="1" source="-Nj2lTPn2lhiKE9wHVVl-8" target="wFEnDSpPt18fVGvJ-lx_-5">
          <mxGeometry width="50" height="50" relative="1" as="geometry">
            <mxPoint x="720" y="565" as="sourcePoint" />
            <mxPoint x="800" y="460" as="targetPoint" />
          </mxGeometry>
        </mxCell>
      </root>
    </mxGraphModel>
  </diagram>
</mxfile>
